<svg width="111" height="71" viewBox="0 0 111 71" fill="none" xmlns="http://www.w3.org/2000/svg">
<path fill-rule="evenodd" clip-rule="evenodd" d="M57.0185 0.159967C57.5022 0.321193 57.824 0.804241 57.984 1.28792L59.5956 9.18043C59.9181 9.66348 60.0793 9.82407 60.7223 9.9853C61.206 9.9853 61.689 9.9853 62.0115 9.66285C63.1382 8.69675 62.0115 7.4082 62.4952 6.28088C62.6564 5.7972 63.1382 5.31416 63.6219 4.99233C64.1055 4.99233 64.7498 4.83111 65.0723 4.83111C66.6826 4.99233 68.4549 4.83111 70.0652 4.83111V4.66988L70.2265 4.83111C70.2265 4.66988 70.2264 4.99233 70.3877 4.83111H81.6621C81.8234 4.99233 82.3064 4.83111 82.4664 4.83111L82.6276 4.66988C82.4664 4.83111 82.6276 4.83111 82.6276 4.83111C87.2994 4.99233 92.2924 4.83111 96.9629 4.83111L97.1241 4.66988V4.83111C97.1241 4.99233 97.2853 4.83111 97.4465 4.83111C100.829 4.83111 103.889 4.99233 107.432 4.83111H110.976C111.137 6.28088 110.492 7.73065 109.205 8.3743C108.399 8.85735 107.593 9.1798 106.789 9.1798C106.628 10.3071 106.145 11.5957 104.855 12.0787C104.051 12.4005 103.084 12.5624 102.117 12.5624C101.795 13.5285 101.313 14.6558 100.185 15.3007C99.2181 15.945 98.0914 15.945 96.9635 15.945C96.641 17.3948 95.5143 18.8439 93.9033 19.0051L92.1324 19.1664H63.4619C62.174 19.0051 61.046 18.5221 59.9193 17.8778C60.403 18.6833 61.2072 19.3276 61.8515 20.1331L63.6225 22.0659C63.7837 21.9047 63.6225 22.3877 63.7837 22.3877L64.1062 22.549C63.7837 23.0326 63.3007 23.3544 62.8183 23.515C62.0128 23.515 61.5291 23.515 60.8848 23.1932C61.046 23.515 61.3685 23.9987 61.5291 24.4818C60.8848 24.9648 60.2412 25.126 59.4357 24.9648C58.952 24.8036 58.6302 24.4818 58.3077 23.9987C58.3077 24.643 58.4689 25.126 58.6302 25.6097C57.9859 25.9315 57.181 26.0928 56.698 25.7703C55.8925 25.6097 55.7312 24.8036 55.57 24.3212C55.2476 24.9648 54.7645 25.6097 54.1202 25.9315C53.476 25.9315 52.8317 25.9315 52.3486 25.6097L52.6711 24.1599C52.0268 24.8042 51.0601 25.1267 50.2552 24.9654C49.9328 24.8042 49.611 24.6436 49.4497 24.4824L50.094 23.0333C49.6103 23.5163 48.6442 23.5163 48 23.3557C47.5169 23.1945 47.1945 23.0333 46.872 22.5502L51.2207 17.8791C48.8048 19.4901 45.4222 19.007 42.3621 19.1676H17.7185C16.4299 19.0064 15.3026 18.5233 14.6583 17.5566C14.3359 17.0736 14.0141 16.4293 13.8528 15.9462C12.0812 15.9462 10.1484 15.6238 9.34291 13.8522C9.02046 13.5304 9.18169 12.4024 8.37619 12.5643C6.76519 12.4031 5.15482 12.0806 4.34932 10.309C4.0275 9.98656 4.34932 8.85924 3.54382 9.02046C2.09405 8.85924 0.483677 7.89251 0.161226 6.28214C-2.81537e-07 5.79846 0 5.31542 0 4.83237H10.1472C11.2745 4.99359 12.4024 4.67114 13.6903 4.83237H21.2604L21.4216 4.50992V4.83237C23.1932 4.99359 25.126 4.67114 26.8976 4.83237V4.66988L27.2201 4.83111H39.4613V4.66988C39.6219 4.99233 40.2662 4.66988 40.5886 4.83111C41.0717 4.66988 41.5547 4.99233 41.7166 4.66988L41.8772 4.83111H47.5144C47.9974 4.83111 48.9642 5.15293 49.286 5.7972C49.9296 7.08575 48.158 8.21307 49.286 9.50162C49.769 9.9853 50.2521 10.1459 50.7351 9.9853C52.1849 9.82407 52.3455 8.05248 52.8292 6.92516L53.9565 4.34869C52.8292 4.18747 51.8631 4.18747 50.8964 4.34869C50.4133 4.18747 50.4133 4.99296 50.2527 4.67051C50.5745 3.70442 50.0915 2.57647 51.0576 1.93219C52.1855 1.7716 53.1516 1.93219 54.1177 1.77159C54.2789 1.77159 54.4402 1.61037 54.4402 1.44914V1.28855H52.9904C52.9904 0.966096 53.1516 0.483049 53.6347 0.321823C54.1177 -0.161225 54.9226 0.321822 55.5675 0V0.160597H57.0185V0.159967Z" fill="white"/>
<path fill-rule="evenodd" clip-rule="evenodd" d="M51.5434 30.1176H43.6503H43.6496V29.957C43.4645 30.1418 43.2265 30.1144 42.9964 30.088C42.8255 30.0683 42.659 30.0492 42.5217 30.1176V68.1297L42.3611 69.0952L42.0393 67.6461L37.6906 49.4464C35.919 42.8425 34.4692 36.8828 32.8588 30.1176H13.8531C13.7725 30.1982 13.6516 30.1982 13.5307 30.1982C13.4099 30.1982 13.2891 30.1982 13.2088 30.2788L12.5645 32.8559C12.4837 33.0176 12.4028 33.2197 12.3221 33.4216C12.2418 33.6223 12.1616 33.8228 12.0815 33.9833L2.57861 70.5456H17.8793L19.0073 64.1029L26.0943 63.9416L26.4161 64.1029L27.3822 70.5456H32.537C32.537 70.5456 32.6982 70.7068 32.8588 70.5456H57.5018L57.3406 58.9487L57.5018 58.1432C62.9778 58.1432 68.4538 57.8207 73.4468 55.4049C76.3464 53.9557 78.1173 50.8956 78.4398 47.996L78.601 48.1573V70.5456H107.592V61.0421H93.7405V30.1176H91.8083C91.5341 30.1176 91.2597 30.1364 90.9915 30.1547C90.4732 30.1901 89.9783 30.2239 89.5536 30.1176H88.5869C87.5248 30.1176 86.4102 30.1352 85.2835 30.1529C82.9931 30.1889 80.6528 30.2257 78.6016 30.1176V39.6205H78.4404C77.7961 37.5271 77.1512 35.7555 75.3803 34.4663C75.3478 34.434 75.3022 34.382 75.2475 34.3195C75.0309 34.0722 74.671 33.6614 74.4135 33.6614C73.6687 33.04 72.8272 32.7065 71.9641 32.3644C71.7085 32.2631 71.4509 32.161 71.1934 32.0504C69.9042 31.5674 68.7763 31.2449 67.4884 31.0843C67.1666 31.0843 67.0053 31.0843 66.8441 30.9231C66.6021 30.9231 66.3603 30.8828 66.1186 30.8424C65.8772 30.8022 65.636 30.7619 65.395 30.7619L65.2337 30.6013V30.7619C65.0453 30.6991 64.8814 30.6852 64.7324 30.6726C64.4992 30.6529 64.3026 30.6363 64.1058 30.4394V30.6007C63.9173 30.6007 63.7287 30.5454 63.5723 30.4996C63.4616 30.4671 63.3671 30.4394 63.3003 30.4394C62.496 30.4394 62.013 30.4394 61.5293 30.2788C58.308 30.1176 54.9254 30.1176 51.866 30.1176H51.8658C51.7742 30.2089 51.6829 30.1453 51.621 30.1021C51.5736 30.0691 51.5434 30.048 51.5434 30.1176ZM63.7825 46.5458C64.4274 44.7748 64.2661 42.6814 63.1382 41.0698C62.0115 39.2988 59.5956 38.6539 57.5016 38.9763V49.4466H58.7895V49.2853C60.5611 49.2853 62.817 48.6404 63.7825 46.5458ZM21.2623 55.405H24.9667C24.6379 51.7919 24.1604 48.2529 23.686 44.738C23.4627 43.0826 23.24 41.4325 23.0339 39.7825L23.0306 39.8055C22.7093 42.0525 22.388 44.2989 21.906 46.3852L21.8886 46.4951C21.412 49.5197 20.936 52.5401 20.618 55.405C20.9399 55.5662 21.2623 55.405 21.2623 55.405Z" fill="white"/>
<path fill-rule="evenodd" clip-rule="evenodd" d="M20.7788 55.0825V55.2437V55.0825ZM97.9291 60.721H98.0904V60.881H97.9291V60.721Z" fill="black"/>
</svg>
