<svg width="136" height="31" viewBox="0 0 136 31" fill="none" xmlns="http://www.w3.org/2000/svg">
<path d="M1.82716 20.107H28.8577C29.1443 19.2954 29.3574 18.4519 29.4936 17.5789H1.19238C1.32856 18.4519 1.54162 19.2954 1.82716 20.107Z" fill="white"/>
<path d="M4.22338 24.3954H26.4635C27.096 23.619 27.643 22.77 28.1031 21.8706H2.58154C3.04389 22.77 3.58971 23.619 4.22338 24.3954Z" fill="white"/>
<path d="M8.41154 27.8966H22.2755C23.2979 27.3299 24.238 26.6336 25.0891 25.8418H5.5957C6.44682 26.6336 7.3858 27.3299 8.41154 27.8966Z" fill="white"/>
<path d="M29.6856 15.3429C29.6856 23.2644 23.2632 29.6868 15.3428 29.6868C7.4224 29.6868 1 23.2644 1 15.3429C1 7.42252 7.4224 1.00012 15.3428 1.00012C23.2632 1.00012 29.6856 7.42252 29.6856 15.3429Z" stroke="white" stroke-width="0.89856"/>
<path d="M10.1298 6.42749L10.2132 9.08519H9.93317C9.79919 8.41637 9.46972 7.87934 8.94477 7.473C8.41872 7.06556 7.85204 6.86129 7.24143 6.86129C6.76809 6.86129 6.3947 6.96891 6.12014 7.18307C5.84559 7.39612 5.70721 7.64103 5.70721 7.91888C5.70721 8.09679 5.75663 8.25273 5.85328 8.39001C5.98726 8.57342 6.20141 8.75682 6.49903 8.93693C6.71648 9.06652 7.21837 9.29495 8.00469 9.62332C9.10621 10.0813 9.84641 10.5151 10.2253 10.9225C10.5987 11.33 10.7854 11.7967 10.7854 12.3194C10.7854 12.9861 10.4801 13.5593 9.87167 14.0371C9.26216 14.5159 8.48791 14.7564 7.54893 14.7564C7.25461 14.7564 6.97676 14.73 6.71428 14.6795C6.45181 14.629 6.12344 14.5313 5.72808 14.3885C5.50734 14.3083 5.32503 14.2699 5.18226 14.2699C5.06146 14.2699 4.93626 14.3105 4.80228 14.3885C4.66939 14.4709 4.56067 14.5917 4.4783 14.7564H4.2334V11.7572H4.4783C4.68147 12.5984 5.07134 13.2431 5.6501 13.6845C6.22887 14.1271 6.85156 14.349 7.52038 14.349C8.03654 14.349 8.44728 14.2293 8.75258 13.9898C9.06008 13.7515 9.21274 13.4726 9.21274 13.1563C9.21274 12.9685 9.15453 12.7862 9.03592 12.6094C8.91841 12.4337 8.7383 12.2656 8.49779 12.1053C8.25728 11.9483 7.83117 11.7429 7.22056 11.4859C6.36505 11.1301 5.75224 10.827 5.38214 10.5766C5.01204 10.3262 4.7287 10.0461 4.53102 9.73863C4.33224 9.42893 4.2334 9.08738 4.2334 8.71618C4.2334 8.08141 4.50576 7.54328 5.05377 7.09631C5.59959 6.65043 6.28927 6.42749 7.12062 6.42749C7.42373 6.42749 7.71696 6.45824 8.0025 6.52084C8.21885 6.56587 8.48022 6.65263 8.79102 6.77892C9.10072 6.90412 9.31707 6.96672 9.44226 6.96672C9.56197 6.96672 9.65532 6.93707 9.72451 6.87337C9.7937 6.81297 9.85739 6.66361 9.9167 6.42749H10.1298Z" fill="white"/>
<path d="M14.832 9.6628L17.1899 13.1672C17.5237 13.6625 17.8115 13.9986 18.0542 14.1732C18.2299 14.2984 18.4155 14.361 18.6099 14.361V14.5729H15.112V14.361C15.3328 14.339 15.4766 14.2984 15.5403 14.238C15.6062 14.1787 15.6381 14.1062 15.6381 14.0194C15.6381 13.8536 15.4854 13.5439 15.1823 13.0871L13.6426 10.7973L13.3889 11.0378V13.2166C13.3889 13.6307 13.4098 13.8921 13.4482 13.992C13.4878 14.0941 13.5646 14.1809 13.6778 14.2523C13.7909 14.3258 13.971 14.361 14.2192 14.361V14.5729H10.8169V14.361H11.0409C11.2353 14.361 11.3935 14.3193 11.5132 14.238C11.5988 14.1831 11.6647 14.0908 11.7108 13.9579C11.7471 13.8624 11.7658 13.6175 11.7658 13.2166V7.96714C11.7658 7.5597 11.7471 7.30601 11.7108 7.20388C11.6746 7.10284 11.601 7.01279 11.489 6.93701C11.3792 6.86123 11.2298 6.8228 11.0409 6.8228H10.8169V6.61084H14.172V6.8228C13.9435 6.8228 13.77 6.86123 13.6514 6.94031C13.5657 6.99412 13.4977 7.08637 13.4482 7.21596C13.4098 7.3126 13.3889 7.5641 13.3889 7.96714V10.4513L15.8907 8.06818C16.2399 7.73212 16.4123 7.46306 16.4123 7.26209C16.4123 7.10943 16.341 6.99302 16.1982 6.90516C16.1246 6.86123 15.9456 6.83378 15.6568 6.8228V6.61084H18.2782V6.8228C18.0432 6.84147 17.8576 6.89089 17.7247 6.97325C17.5918 7.05233 17.281 7.32578 16.7989 7.79143L14.832 9.6628Z" fill="white"/>
<path d="M21.8 10.94V13.1914C21.8 13.6197 21.823 13.8877 21.8747 13.9986C21.9241 14.1084 22.0119 14.1963 22.1404 14.2611C22.2667 14.328 22.5039 14.361 22.851 14.361V14.5729H18.9951V14.361C19.3454 14.361 19.5849 14.328 19.7101 14.2589C19.8342 14.1919 19.922 14.1051 19.9725 13.9942C20.0231 13.8866 20.0483 13.6197 20.0483 13.1914V7.9924C20.0483 7.56629 20.0231 7.29723 19.9725 7.18631C19.922 7.07539 19.8331 6.98643 19.7068 6.92164C19.5805 6.85574 19.3422 6.8228 18.9951 6.8228V6.61084H22.4831C23.3913 6.61084 24.0546 6.67893 24.4752 6.81072C24.8959 6.9447 25.2396 7.1907 25.5054 7.54872C25.77 7.90674 25.9029 8.32626 25.9029 8.80838C25.9029 9.39593 25.7053 9.88244 25.3066 10.2657C25.0518 10.5084 24.696 10.6896 24.238 10.8104L26.0347 13.5066C26.2708 13.8525 26.4378 14.0656 26.5377 14.1512C26.6882 14.272 26.8628 14.3368 27.0616 14.3489V14.5729H24.7114L22.2931 10.94H21.8ZM21.8 7.04574V10.5205H22.1141C22.6291 10.5205 23.0135 10.47 23.2672 10.3701C23.5231 10.2712 23.723 10.0922 23.8679 9.83302C24.0151 9.57274 24.0887 9.23559 24.0887 8.81827C24.0887 8.21315 23.9536 7.76727 23.6867 7.47844C23.4177 7.1896 22.9861 7.04574 22.3908 7.04574H21.8Z" fill="white"/>
<path d="M36.8931 12.9915L40.2448 12.785C40.3173 13.321 40.4645 13.7284 40.6874 14.0085C41.0498 14.462 41.5671 14.6894 42.2403 14.6894C42.7422 14.6894 43.1299 14.5729 43.4011 14.3401C43.6724 14.1073 43.8086 13.8382 43.8086 13.5307C43.8086 13.2397 43.679 12.9794 43.4187 12.7488C43.1584 12.5193 42.5577 12.3018 41.6143 12.0975C40.0702 11.7549 38.9687 11.3002 38.3109 10.7336C37.6475 10.168 37.3159 9.44534 37.3159 8.56786C37.3159 7.9913 37.4861 7.44658 37.8255 6.93371C38.1648 6.42084 38.6744 6.01669 39.3564 5.72347C40.0373 5.43024 40.9719 5.28418 42.1579 5.28418C43.6131 5.28418 44.7234 5.54995 45.4878 6.08259C46.2521 6.61522 46.7068 7.46195 46.8517 8.62387L43.5318 8.81496C43.444 8.30868 43.2584 7.94078 42.9761 7.71125C42.6939 7.48172 42.304 7.36641 41.8065 7.36641C41.3969 7.36641 41.0894 7.45207 40.8818 7.62339C40.6742 7.79471 40.571 8.00338 40.571 8.24828C40.571 8.42729 40.6567 8.58873 40.828 8.7315C40.9949 8.87976 41.3892 9.01813 42.0108 9.14553C43.5494 9.4728 44.652 9.80336 45.3175 10.1372C45.983 10.4722 46.4685 10.8862 46.7716 11.3815C47.0747 11.8768 47.2262 12.4303 47.2262 13.0431C47.2262 13.7625 47.0242 14.4258 46.62 15.0331C46.2159 15.6404 45.6514 16.1006 44.9266 16.4147C44.2006 16.7287 43.2869 16.8858 42.1843 16.8858C40.247 16.8858 38.905 16.519 38.1593 15.7865C37.4136 15.054 36.9919 14.1216 36.8931 12.9915Z" fill="white"/>
<path d="M51.9805 16.6903H55.5113V5.47852H51.9805V16.6903Z" fill="white"/>
<path d="M60.9136 5.47852H64.1929L68.4792 11.6835V5.47852H71.7991V16.6903H68.4792L64.2159 10.5194V16.6903H60.9136V5.47852Z" fill="white"/>
<path d="M76.542 11.0927C76.542 9.26084 77.0593 7.83535 78.0949 6.814C79.1305 5.79375 80.5725 5.28418 82.4208 5.28418C84.3163 5.28418 85.7758 5.78497 86.8016 6.78765C87.8262 7.79032 88.3391 9.19385 88.3391 11.0004C88.3391 12.3117 88.1151 13.3869 87.667 14.227C87.2189 15.066 86.5721 15.7195 85.7253 16.1851C84.8786 16.653 83.8243 16.8858 82.5602 16.8858C81.2764 16.8858 80.2133 16.6848 79.3721 16.2818C78.5309 15.8787 77.8489 15.2407 77.3261 14.3687C76.8023 13.4956 76.542 12.404 76.542 11.0927ZM80.0563 11.1091C80.0563 12.2436 80.2705 13.0596 80.6977 13.5549C81.126 14.0513 81.708 14.2984 82.4438 14.2984C83.2016 14.2984 83.787 14.0557 84.2021 13.5703C84.6172 13.0848 84.8237 12.2129 84.8237 10.9554C84.8237 9.89671 84.6073 9.12356 84.1746 8.63595C83.7419 8.14724 83.1544 7.90344 82.4131 7.90344C81.7025 7.90344 81.1326 8.15164 80.7021 8.64693C80.2716 9.14333 80.0563 9.9637 80.0563 11.1091Z" fill="white"/>
<path d="M93.1143 5.47852H96.6286V9.71546L100.321 5.47852H104.993L100.847 9.70887L105.172 16.6903H100.841L98.4516 12.092L96.6286 13.9645V16.6903H93.1143V5.47852Z" fill="white"/>
<path d="M108.2 11.0927C108.2 9.26084 108.718 7.83535 109.754 6.814C110.789 5.79375 112.231 5.28418 114.08 5.28418C115.974 5.28418 117.435 5.78497 118.459 6.78765C119.485 7.79032 119.998 9.19385 119.998 11.0004C119.998 12.3117 119.774 13.3869 119.326 14.227C118.878 15.066 118.231 15.7195 117.384 16.1851C116.537 16.653 115.482 16.8858 114.219 16.8858C112.935 16.8858 111.872 16.6848 111.031 16.2818C110.19 15.8787 109.507 15.2407 108.985 14.3687C108.461 13.4956 108.2 12.404 108.2 11.0927ZM111.715 11.1091C111.715 12.2436 111.928 13.0596 112.356 13.5549C112.784 14.0513 113.366 14.2984 114.103 14.2984C114.859 14.2984 115.446 14.0557 115.861 13.5703C116.275 13.0848 116.482 12.2129 116.482 10.9554C116.482 9.89671 116.266 9.12356 115.833 8.63595C115.4 8.14724 114.813 7.90344 114.072 7.90344C113.361 7.90344 112.79 8.15164 112.361 8.64693C111.93 9.14333 111.715 9.9637 111.715 11.1091Z" fill="white"/>
<path d="M124.79 16.6903V5.47852H130.658C131.747 5.47852 132.578 5.57077 133.153 5.75417C133.728 5.93757 134.193 6.27802 134.544 6.77442C134.896 7.27081 135.073 7.87593 135.073 8.58868C135.073 9.21027 134.938 9.74621 134.668 10.1976C134.399 10.6478 134.028 11.0136 133.556 11.2936C133.255 11.4726 132.843 11.6198 132.319 11.7373C132.737 11.8757 133.043 12.014 133.234 12.1524C133.362 12.2447 133.55 12.4423 133.796 12.7444C134.041 13.0475 134.205 13.2803 134.288 13.4439L136 16.6903H132.028L130.14 13.2605C129.901 12.8157 129.687 12.5269 129.5 12.3951C129.244 12.2216 128.955 12.1348 128.632 12.1348H128.32V16.6903H124.79ZM128.32 10.0186H129.811C129.971 10.0186 130.284 9.96805 130.746 9.86591C130.98 9.81979 131.171 9.70337 131.32 9.51448C131.468 9.32559 131.543 9.10924 131.543 8.86433C131.543 8.50302 131.425 8.22517 131.191 8.03188C130.957 7.8375 130.518 7.74085 129.872 7.74085H128.32V10.0186Z" fill="white"/>
<path d="M37.9116 24.3152L38.7649 24.2339C38.8177 24.5227 38.922 24.7347 39.0801 24.8698C39.2383 25.0048 39.4524 25.0718 39.7204 25.0718C40.0048 25.0718 40.219 25.0114 40.364 24.8917C40.5078 24.7709 40.5803 24.6314 40.5803 24.47C40.5803 24.3668 40.5495 24.2789 40.4891 24.2064C40.4287 24.1329 40.3233 24.0703 40.1729 24.0164C40.0696 23.9802 39.8346 23.9165 39.4678 23.8254C38.9967 23.7078 38.6661 23.564 38.475 23.3937C38.2081 23.1543 38.0742 22.8622 38.0742 22.5185C38.0742 22.2977 38.1368 22.0902 38.2631 21.8969C38.3882 21.7036 38.5706 21.5575 38.8067 21.4565C39.0439 21.3554 39.3294 21.3049 39.6655 21.3049C40.2124 21.3049 40.6242 21.4246 40.901 21.6641C41.1777 21.9035 41.3227 22.223 41.337 22.6228L40.4584 22.6557C40.42 22.4328 40.3387 22.2736 40.2146 22.1758C40.0905 22.0781 39.9038 22.0298 39.6545 22.0298C39.3986 22.0298 39.1976 22.0814 39.0527 22.1857C38.9582 22.2527 38.9121 22.3428 38.9121 22.4559C38.9121 22.558 38.956 22.6459 39.0428 22.7194C39.1537 22.8117 39.4239 22.9094 39.8522 23.0105C40.2805 23.1115 40.5979 23.2169 40.8021 23.3257C41.0075 23.4344 41.1689 23.5826 41.2843 23.7704C41.4007 23.9593 41.4589 24.1911 41.4589 24.4678C41.4589 24.7193 41.3886 24.9532 41.2502 25.1729C41.1118 25.3914 40.9153 25.554 40.6605 25.6605C40.4068 25.767 40.0905 25.8208 39.7116 25.8208C39.1603 25.8208 38.7364 25.6923 38.441 25.4364C38.1455 25.1795 37.9687 24.8061 37.9116 24.3152Z" fill="white"/>
<path d="M42.189 22.1518V21.3787H43.0269V22.1518H42.189ZM42.189 25.7397V22.5746H43.0269V25.7397H42.189Z" fill="white"/>
<path d="M46.7522 25.7398H45.9143V24.1287C45.9143 23.7893 45.8967 23.5686 45.8605 23.4686C45.8253 23.3687 45.7682 23.2907 45.688 23.2347C45.609 23.1798 45.5134 23.1523 45.4014 23.1523C45.2575 23.1523 45.129 23.1919 45.0159 23.271C44.9017 23.35 44.8237 23.4555 44.7809 23.5861C44.7392 23.7168 44.7183 23.9584 44.7183 24.311V25.7398H43.8804V22.5747H44.6524V23.0381C44.9281 22.6856 45.274 22.5088 45.6924 22.5088C45.8758 22.5088 46.0439 22.5428 46.1965 22.6087C46.3492 22.6757 46.4645 22.7603 46.5425 22.8635C46.6204 22.9667 46.6753 23.0832 46.7061 23.2138C46.7368 23.3456 46.7522 23.5323 46.7522 23.7761V25.7398Z" fill="white"/>
<path d="M47.4009 24.121C47.4009 23.842 47.469 23.573 47.6062 23.3127C47.7435 23.0513 47.9368 22.8525 48.1883 22.7153C48.4398 22.578 48.7198 22.5088 49.0295 22.5088C49.5073 22.5088 49.8993 22.6647 50.2057 22.9766C50.511 23.2874 50.6637 23.6806 50.6637 24.1561C50.6637 24.6349 50.5099 25.0325 50.2013 25.3477C49.8916 25.664 49.504 25.821 49.035 25.821C48.7451 25.821 48.4694 25.7551 48.2059 25.6233C47.9434 25.4927 47.7435 25.3005 47.6062 25.0468C47.469 24.7931 47.4009 24.4845 47.4009 24.121ZM48.2553 24.1649C48.2553 24.479 48.33 24.7195 48.4793 24.8864C48.6276 25.0534 48.811 25.1379 49.0295 25.1379C49.2481 25.1379 49.4315 25.0534 49.5798 24.8864C49.7269 24.7195 49.8016 24.4768 49.8016 24.1594C49.8016 23.8486 49.7269 23.6103 49.5798 23.4434C49.4315 23.2764 49.2481 23.193 49.0295 23.193C48.811 23.193 48.6276 23.2764 48.4793 23.4434C48.33 23.6103 48.2553 23.8508 48.2553 24.1649Z" fill="white"/>
<path d="M51.2886 25.7397V21.3787H52.1265V23.6893L53.0995 22.5746H54.1242L53.0512 23.7311L54.2055 25.7397H53.3027L52.5109 24.3131L52.1265 24.726V25.7397H51.2886Z" fill="white"/>
<path d="M54.5024 24.121C54.5024 23.842 54.5705 23.573 54.7078 23.3127C54.8451 23.0513 55.0384 22.8525 55.2899 22.7153C55.5414 22.578 55.8214 22.5088 56.1311 22.5088C56.6088 22.5088 57.0009 22.6647 57.3062 22.9766C57.6126 23.2874 57.7653 23.6806 57.7653 24.1561C57.7653 24.6349 57.6104 25.0325 57.3018 25.3477C56.9932 25.664 56.6055 25.821 56.1366 25.821C55.8467 25.821 55.571 25.7551 55.3074 25.6233C55.045 25.4927 54.8451 25.3005 54.7078 25.0468C54.5705 24.7931 54.5024 24.4845 54.5024 24.121ZM55.3569 24.1649C55.3569 24.479 55.4315 24.7195 55.5798 24.8864C55.7292 25.0534 55.9126 25.1379 56.1311 25.1379C56.3497 25.1379 56.5331 25.0534 56.6813 24.8864C56.8285 24.7195 56.9032 24.4768 56.9032 24.1594C56.9032 23.8486 56.8285 23.6103 56.6813 23.4434C56.5331 23.2764 56.3497 23.193 56.1311 23.193C55.9126 23.193 55.7292 23.2764 55.5798 23.4434C55.4315 23.6103 55.3569 23.8508 55.3569 24.1649Z" fill="white"/>
<path d="M59.2203 25.7398H58.3823V22.5747H59.1555V23.0228C59.2873 22.8108 59.407 22.6724 59.5135 22.6076C59.6189 22.5417 59.7397 22.5088 59.8737 22.5088C60.0648 22.5088 60.2471 22.5615 60.4239 22.6669L60.168 23.394C60.0275 23.3028 59.8968 23.2578 59.7771 23.2578C59.6607 23.2578 59.5618 23.2896 59.4805 23.3544C59.3993 23.4192 59.3356 23.5356 59.2895 23.7037C59.2433 23.8728 59.2203 24.2264 59.2203 24.7634V25.7398Z" fill="white"/>
<path d="M62.4731 25.7397V21.3787H63.7888L64.5762 24.3526L65.3472 21.3787H66.6716V25.7397H65.8579L65.8535 22.3067L64.9969 25.7397H64.1468L63.2902 22.3067L63.2869 25.7397H62.4731Z" fill="white"/>
<path d="M69.3803 24.7382L70.2095 24.8777C70.103 25.1841 69.9338 25.4191 69.7021 25.5794C69.4715 25.7398 69.1826 25.821 68.8356 25.821C68.2865 25.821 67.8813 25.6409 67.6177 25.2807C67.409 24.993 67.3047 24.6284 67.3047 24.1891C67.3047 23.6641 67.442 23.2523 67.7143 22.9558C67.9878 22.6581 68.3326 22.5088 68.751 22.5088C69.22 22.5088 69.5901 22.6647 69.8613 22.9755C70.1326 23.2863 70.2622 23.763 70.2501 24.4054H68.1591C68.1646 24.6547 68.2327 24.848 68.3623 24.9864C68.4919 25.1248 68.6533 25.1939 68.8455 25.1939C68.9773 25.1939 69.0871 25.1588 69.1772 25.0863C69.2661 25.0149 69.3342 24.8985 69.3803 24.7382ZM69.4199 23.8925C69.4144 23.6509 69.3518 23.4664 69.2332 23.3412C69.1146 23.2149 68.9707 23.1523 68.8005 23.1523C68.6182 23.1523 68.4677 23.2182 68.3491 23.3511C68.2305 23.484 68.1723 23.6641 68.1745 23.8925H69.4199Z" fill="white"/>
<path d="M71.731 25.7398H70.8931V22.5747H71.6662V23.0228C71.7991 22.8108 71.9188 22.6724 72.0242 22.6076C72.1297 22.5417 72.2505 22.5088 72.3855 22.5088C72.5755 22.5088 72.7589 22.5615 72.9358 22.6669L72.6788 23.394C72.5382 23.3028 72.4086 23.2578 72.2878 23.2578C72.1714 23.2578 72.0726 23.2896 71.9913 23.3544C71.9111 23.4192 71.8474 23.5356 71.8002 23.7037C71.7541 23.8728 71.731 24.2264 71.731 24.7634V25.7398Z" fill="white"/>
<path d="M76.0514 23.5104L75.2299 23.6564C75.2014 23.495 75.1388 23.3731 75.0399 23.2918C74.9411 23.2095 74.8137 23.1688 74.6566 23.1688C74.4469 23.1688 74.28 23.2413 74.1559 23.3852C74.0307 23.529 73.9692 23.7706 73.9692 24.1078C73.9692 24.4845 74.0318 24.7503 74.1581 24.904C74.2844 25.06 74.4535 25.1379 74.6654 25.1379C74.8247 25.1379 74.9543 25.0918 75.0564 24.9996C75.1574 24.9084 75.2288 24.7514 75.2706 24.5273L76.092 24.6657C76.0075 25.0468 75.8438 25.3345 75.6022 25.5289C75.3606 25.7233 75.0366 25.821 74.6303 25.821C74.1679 25.821 73.8 25.675 73.5266 25.3828C73.252 25.0896 73.1147 24.6855 73.1147 24.1682C73.1147 23.6454 73.252 23.238 73.5277 22.9459C73.8033 22.6549 74.1756 22.5088 74.6457 22.5088C75.03 22.5088 75.3354 22.5923 75.5627 22.757C75.79 22.9217 75.9526 23.1732 76.0514 23.5104Z" fill="white"/>
<path d="M77.5152 21.3787V22.9843C77.7843 22.668 78.106 22.5087 78.4794 22.5087C78.6705 22.5087 78.844 22.545 78.9978 22.6164C79.1526 22.6877 79.268 22.7789 79.3459 22.8898C79.425 23.0007 79.4777 23.1237 79.5063 23.2588C79.5348 23.3939 79.5491 23.6026 79.5491 23.8859V25.7397H78.7112V24.0726C78.7112 23.742 78.6958 23.5323 78.6639 23.4433C78.6332 23.3544 78.5772 23.283 78.497 23.2303C78.4179 23.1775 78.318 23.1523 78.1972 23.1523C78.0599 23.1523 77.9369 23.1863 77.8282 23.2533C77.7206 23.3203 77.6415 23.4214 77.591 23.5575C77.5404 23.6937 77.5152 23.8936 77.5152 24.1594V25.7397H76.6772V21.3787H77.5152Z" fill="white"/>
<path d="M81.021 23.551L80.2732 23.4126C80.3577 23.1051 80.5038 22.8778 80.7124 22.7306C80.92 22.5835 81.2286 22.5088 81.6382 22.5088C82.0105 22.5088 82.2873 22.5538 82.4696 22.6417C82.6519 22.7295 82.7804 22.8416 82.854 22.9777C82.9287 23.1139 82.966 23.3632 82.966 23.7256L82.9572 24.7019C82.9572 24.9787 82.9704 25.1841 82.9967 25.3158C83.0231 25.4476 83.0725 25.5882 83.145 25.7398H82.3148C82.2928 25.6859 82.2664 25.6047 82.2346 25.4981C82.2214 25.4498 82.2104 25.4191 82.2049 25.4037C82.0633 25.5421 81.9106 25.6464 81.7481 25.7167C81.5866 25.7859 81.4131 25.821 81.2297 25.821C80.9057 25.821 80.6498 25.7321 80.4632 25.5564C80.2765 25.3795 80.1831 25.1566 80.1831 24.8875C80.1831 24.7085 80.2259 24.5493 80.3105 24.4098C80.3962 24.2703 80.5148 24.1627 80.6685 24.0891C80.8223 24.0145 81.0441 23.9497 81.3329 23.8936C81.7228 23.8212 81.9941 23.7531 82.1445 23.6894V23.6048C82.1445 23.4412 82.1039 23.3259 82.0248 23.2567C81.9447 23.1875 81.7942 23.1523 81.5735 23.1523C81.4241 23.1523 81.3077 23.182 81.2242 23.2413C81.1408 23.2995 81.0727 23.4027 81.021 23.551ZM82.1445 24.2341C82.0369 24.2703 81.8689 24.3132 81.6372 24.3626C81.4065 24.412 81.255 24.4603 81.1847 24.5087C81.076 24.5855 81.021 24.6844 81.021 24.803C81.021 24.9205 81.065 25.0215 81.1517 25.1072C81.2385 25.1928 81.3494 25.2346 81.4834 25.2346C81.6328 25.2346 81.7766 25.1852 81.9128 25.0863C82.0138 25.0105 82.0797 24.9183 82.1116 24.8085C82.1335 24.7371 82.1445 24.602 82.1445 24.401V24.2341Z" fill="white"/>
<path d="M86.6502 25.7398H85.8122V24.1287C85.8122 23.7893 85.7947 23.5686 85.7595 23.4686C85.7244 23.3687 85.6662 23.2907 85.5871 23.2347C85.508 23.1798 85.4114 23.1523 85.2994 23.1523C85.1566 23.1523 85.0281 23.1919 84.9139 23.271C84.7997 23.35 84.7217 23.4555 84.68 23.5861C84.6371 23.7168 84.6163 23.9584 84.6163 24.311V25.7398H83.7783V22.5747H84.5515V23.0381C84.826 22.6856 85.1731 22.5088 85.5904 22.5088C85.7749 22.5088 85.9429 22.5428 86.0956 22.6087C86.2471 22.6757 86.3624 22.7603 86.4415 22.8635C86.5195 22.9667 86.5733 23.0832 86.604 23.2138C86.6348 23.3456 86.6502 23.5323 86.6502 23.7761V25.7398Z" fill="white"/>
<path d="M88.9522 22.5747V23.2413H88.3822V24.5262C88.3822 24.7865 88.3877 24.938 88.3987 24.9809C88.4086 25.0237 88.4328 25.0588 88.4712 25.0874C88.5096 25.1148 88.5558 25.1291 88.6096 25.1291C88.6853 25.1291 88.7952 25.1028 88.939 25.0489L89.0082 25.6958C88.816 25.7793 88.5986 25.821 88.3548 25.821C88.2054 25.821 88.0703 25.7946 87.9506 25.7441C87.8309 25.6936 87.7431 25.6277 87.6871 25.5464C87.631 25.4663 87.5926 25.3565 87.5706 25.2192C87.5531 25.1214 87.5443 24.9238 87.5443 24.6272V23.2413H87.1621V22.5747H87.5443V21.9476L88.3822 21.46V22.5747H88.9522Z" fill="white"/>
<path d="M91.2124 25.7397V21.3787H92.5292L93.3155 24.3526L94.0864 21.3787H95.4109V25.7397H94.5971L94.5927 22.3067L93.7361 25.7397H92.8861L92.0306 22.3067L92.0262 25.7397H91.2124Z" fill="white"/>
<path d="M96.9078 23.551L96.1588 23.4126C96.2444 23.1051 96.3905 22.8778 96.5981 22.7306C96.8067 22.5835 97.1153 22.5088 97.525 22.5088C97.8973 22.5088 98.174 22.5538 98.3563 22.6417C98.5386 22.7295 98.666 22.8416 98.7407 22.9777C98.8154 23.1139 98.8516 23.3632 98.8516 23.7256L98.8439 24.7019C98.8439 24.9787 98.8571 25.1841 98.8835 25.3158C98.9098 25.4476 98.9592 25.5882 99.0306 25.7398H98.2015C98.1795 25.6859 98.1521 25.6047 98.1213 25.4981C98.107 25.4498 98.0971 25.4191 98.0917 25.4037C97.9489 25.5421 97.7973 25.6464 97.6348 25.7167C97.4723 25.7859 97.2998 25.821 97.1164 25.821C96.7914 25.821 96.5366 25.7321 96.3499 25.5564C96.1632 25.3795 96.0698 25.1566 96.0698 24.8875C96.0698 24.7085 96.1127 24.5493 96.1972 24.4098C96.2829 24.2703 96.4015 24.1627 96.5552 24.0891C96.709 24.0145 96.9297 23.9497 97.2197 23.8936C97.6095 23.8212 97.8797 23.7531 98.0302 23.6894V23.6048C98.0302 23.4412 97.9906 23.3259 97.9104 23.2567C97.8314 23.1875 97.6809 23.1523 97.4602 23.1523C97.3108 23.1523 97.1944 23.182 97.1109 23.2413C97.0275 23.2995 96.9594 23.4027 96.9078 23.551ZM98.0302 24.2341C97.9236 24.2703 97.7545 24.3132 97.5239 24.3626C97.2921 24.412 97.1417 24.4603 97.0703 24.5087C96.9616 24.5855 96.9078 24.6844 96.9078 24.803C96.9078 24.9205 96.9506 25.0215 97.0385 25.1072C97.1252 25.1928 97.235 25.2346 97.3701 25.2346C97.5195 25.2346 97.6633 25.1852 97.7995 25.0863C97.8995 25.0105 97.9665 24.9183 97.9972 24.8085C98.0192 24.7371 98.0302 24.602 98.0302 24.401V24.2341Z" fill="white"/>
<path d="M100.47 25.7398H99.6323V22.5747H100.405V23.0228C100.538 22.8108 100.657 22.6724 100.763 22.6076C100.869 22.5417 100.99 22.5088 101.125 22.5088C101.315 22.5088 101.498 22.5615 101.675 22.6669L101.418 23.394C101.277 23.3028 101.148 23.2578 101.027 23.2578C100.911 23.2578 100.812 23.2896 100.732 23.3544C100.65 23.4192 100.587 23.5356 100.539 23.7037C100.493 23.8728 100.47 24.2264 100.47 24.7634V25.7398Z" fill="white"/>
<path d="M102.033 22.1518V21.3787H102.871V22.1518H102.033ZM102.033 25.7397V22.5746H102.871V25.7397H102.033Z" fill="white"/>
<path d="M106.595 25.7398H105.758V24.1287C105.758 23.7893 105.74 23.5686 105.705 23.4686C105.67 23.3687 105.613 23.2907 105.532 23.2347C105.453 23.1798 105.357 23.1523 105.246 23.1523C105.102 23.1523 104.973 23.1919 104.859 23.271C104.745 23.35 104.667 23.4555 104.625 23.5861C104.584 23.7168 104.562 23.9584 104.562 24.311V25.7398H103.724V22.5747H104.497V23.0381C104.772 22.6856 105.118 22.5088 105.536 22.5088C105.72 22.5088 105.888 22.5428 106.041 22.6087C106.194 22.6757 106.309 22.7603 106.387 22.8635C106.465 22.9667 106.52 23.0832 106.55 23.2138C106.581 23.3456 106.595 23.5323 106.595 23.7761V25.7398Z" fill="white"/>
<path d="M109.28 24.7382L110.11 24.8777C110.002 25.1841 109.833 25.4191 109.602 25.5794C109.372 25.7398 109.083 25.821 108.736 25.821C108.187 25.821 107.781 25.6409 107.517 25.2807C107.309 24.993 107.205 24.6284 107.205 24.1891C107.205 23.6641 107.341 23.2523 107.615 22.9558C107.887 22.6581 108.233 22.5088 108.651 22.5088C109.12 22.5088 109.49 22.6647 109.762 22.9755C110.033 23.2863 110.163 23.763 110.151 24.4054H108.059C108.065 24.6547 108.133 24.848 108.263 24.9864C108.391 25.1248 108.553 25.1939 108.746 25.1939C108.877 25.1939 108.987 25.1588 109.076 25.0863C109.167 25.0149 109.233 24.8985 109.28 24.7382ZM109.32 23.8925C109.315 23.6509 109.252 23.4664 109.134 23.3412C109.015 23.2149 108.87 23.1523 108.7 23.1523C108.519 23.1523 108.368 23.2182 108.249 23.3511C108.131 23.484 108.072 23.6641 108.074 23.8925H109.32Z" fill="white"/>
<path d="M115.322 24.1361L116.176 24.4052C116.045 24.8807 115.826 25.2344 115.521 25.4661C115.216 25.6967 114.829 25.812 114.36 25.812C113.779 25.812 113.303 25.6155 112.928 25.219C112.555 24.8236 112.368 24.2833 112.368 23.5969C112.368 22.8721 112.556 22.3087 112.933 21.9068C113.308 21.5059 113.802 21.3049 114.416 21.3049C114.951 21.3049 115.386 21.462 115.72 21.775C115.919 21.9606 116.068 22.2274 116.168 22.5745L115.297 22.7864C115.246 22.5602 115.137 22.3812 114.972 22.2505C114.806 22.1187 114.606 22.0539 114.37 22.0539C114.044 22.0539 113.779 22.1703 113.576 22.4021C113.373 22.6349 113.272 23.0116 113.272 23.5321C113.272 24.0845 113.371 24.4777 113.571 24.7127C113.771 24.9466 114.03 25.0641 114.349 25.0641C114.584 25.0641 114.786 24.9895 114.957 24.8401C115.126 24.6907 115.248 24.4568 115.322 24.1361Z" fill="white"/>
<path d="M116.714 24.121C116.714 23.842 116.782 23.573 116.92 23.3127C117.056 23.0513 117.25 22.8525 117.502 22.7153C117.752 22.578 118.033 22.5088 118.343 22.5088C118.821 22.5088 119.213 22.6647 119.518 22.9766C119.823 23.2874 119.977 23.6806 119.977 24.1561C119.977 24.6349 119.822 25.0325 119.514 25.3477C119.205 25.664 118.816 25.821 118.349 25.821C118.059 25.821 117.782 25.7551 117.519 25.6233C117.257 25.4927 117.056 25.3005 116.92 25.0468C116.782 24.7931 116.714 24.4845 116.714 24.121ZM117.569 24.1649C117.569 24.479 117.643 24.7195 117.792 24.8864C117.941 25.0534 118.124 25.1379 118.343 25.1379C118.562 25.1379 118.745 25.0534 118.892 24.8864C119.04 24.7195 119.114 24.4768 119.114 24.1594C119.114 23.8486 119.04 23.6103 118.892 23.4434C118.745 23.2764 118.562 23.193 118.343 23.193C118.124 23.193 117.941 23.2764 117.792 23.4434C117.643 23.6103 117.569 23.8508 117.569 24.1649Z" fill="white"/>
<path d="M120.626 25.7396H121.464V24.9016H120.626V25.7396Z" fill="white"/>
<path d="M122.3 24.9016H123.138V25.4979C123.138 25.7396 123.117 25.9306 123.076 26.0701C123.034 26.2096 122.955 26.3348 122.839 26.4457C122.723 26.5566 122.576 26.6445 122.398 26.7071L122.234 26.3655C122.402 26.3106 122.522 26.2338 122.593 26.1371C122.665 26.0405 122.702 25.9076 122.707 25.7396H122.3V24.9016Z" fill="white"/>
<path d="M125.73 25.7396V21.4192H126.609V24.9994H128.798V25.7396H125.73Z" fill="white"/>
<path d="M130.871 22.5747V23.2413H130.301V24.5262C130.301 24.7865 130.307 24.938 130.318 24.9809C130.329 25.0237 130.353 25.0588 130.39 25.0874C130.429 25.1148 130.475 25.1291 130.529 25.1291C130.604 25.1291 130.714 25.1028 130.859 25.0489L130.928 25.6958C130.735 25.7793 130.518 25.821 130.274 25.821C130.124 25.821 129.989 25.7946 129.87 25.7441C129.75 25.6936 129.662 25.6277 129.606 25.5464C129.55 25.4663 129.512 25.3565 129.49 25.2192C129.472 25.1214 129.463 24.9238 129.463 24.6272V23.2413H129.081V22.5747H129.463V21.9476L130.301 21.46V22.5747H130.871Z" fill="white"/>
<path d="M134.346 25.7397H133.573V25.2763C133.443 25.4564 133.292 25.5925 133.116 25.6837C132.94 25.7748 132.762 25.821 132.583 25.821C132.221 25.821 131.909 25.6738 131.65 25.3806C131.392 25.0874 131.262 24.6777 131.262 24.1528C131.262 23.6157 131.387 23.2083 131.639 22.9283C131.89 22.6493 132.209 22.5087 132.592 22.5087C132.945 22.5087 133.25 22.6559 133.507 22.9491V21.3787H134.346V25.7397ZM132.116 24.099C132.116 24.4372 132.163 24.6821 132.256 24.8326C132.391 25.0522 132.58 25.162 132.822 25.162C133.014 25.162 133.179 25.0797 133.314 24.9149C133.449 24.7513 133.516 24.5064 133.516 24.1791C133.516 23.8145 133.45 23.5531 133.319 23.3917C133.188 23.2325 133.02 23.1523 132.816 23.1523C132.617 23.1523 132.452 23.2314 132.318 23.3895C132.184 23.5477 132.116 23.7849 132.116 24.099Z" fill="white"/>
<path d="M135.157 25.7396H135.995V24.9016H135.157V25.7396Z" fill="white"/>
</svg>
