<svg width="135" height="32" viewBox="0 0 135 32" fill="none" xmlns="http://www.w3.org/2000/svg">
<path d="M25.1672 8.28585L24.7982 8.07748L20.8766 5.87469L20.6711 5.53534V4.23003C20.66 3.10706 20.2134 2.03369 19.428 1.24209C18.6426 0.450501 17.5816 0.00432642 16.4744 8.08233e-05H10.5799C9.46546 -0.00686683 8.39372 0.434357 7.59931 1.22715C6.80491 2.01994 6.35257 3.0997 6.34133 4.23003V7.5372C6.34282 7.85095 6.24045 8.15614 6.05061 8.40387C5.86078 8.6516 5.59448 8.82754 5.29435 8.90352H1.99932C1.46826 8.90588 0.959744 9.12152 0.58505 9.50325C0.210356 9.88497 -5.10417e-06 10.4017 0 10.9404L0 13.8382H6.16965C6.37099 13.9123 6.54611 14.0453 6.67281 14.2205C6.79951 14.3956 6.87208 14.605 6.88133 14.822V21.2451C6.88133 21.8183 7.10521 22.3682 7.50399 22.7743C7.90276 23.1805 8.44394 23.4098 9.00905 23.4122H16.9293C17.4952 23.4098 18.0373 23.1808 18.4375 22.7749C18.8377 22.369 19.0635 21.8191 19.0658 21.2451V13.4118C19.0635 12.8386 18.8374 12.2897 18.4369 11.8852C18.0365 11.4807 17.4944 11.2537 16.9293 11.2537H10.6826C10.4041 11.2515 10.1377 11.1377 9.94153 10.9371C9.74539 10.7365 9.63542 10.4653 9.63562 10.1828V4.1251C9.68149 3.88156 9.80925 3.6617 9.99711 3.50305C10.185 3.34439 10.4213 3.25678 10.6657 3.25515H16.415C16.6949 3.26217 16.9606 3.38168 17.1536 3.58739C17.3467 3.7931 17.4512 4.06817 17.4443 4.35208V6.17087C17.5633 6.70142 17.7905 7.20083 18.1112 7.63698C18.4319 8.07314 18.839 8.43638 19.3065 8.70334C23.2963 10.9493 23.322 10.9664 23.3565 10.9753L23.4423 11.0274C23.5722 11.1101 23.68 11.224 23.7563 11.359C23.8326 11.494 23.8749 11.6459 23.8796 11.8014L23.8114 23.5521C23.7909 24.8532 23.2628 26.0931 22.3428 27C21.4227 27.907 20.1858 28.4071 18.9029 28.3908H8.20272C6.91997 28.4091 5.68235 27.911 4.76097 27.0056C3.83958 26.1002 3.30954 24.8613 3.28696 23.5603V17.964C3.20869 17.7068 3.04973 17.4825 2.83425 17.3253C2.61877 17.1681 2.35856 17.0867 2.09323 17.0933H0.0682337V23.5863C0.0908922 25.7577 0.961877 27.8312 2.49006 29.3519C4.01825 30.8727 6.07881 31.7164 8.21959 31.6979H18.9029C21.0437 31.7164 23.1043 30.8727 24.6325 29.3519C26.1607 27.8312 27.0316 25.7577 27.0543 23.5863L27.1145 11.8453C27.1129 11.1334 26.9334 10.4336 26.5929 9.81114C26.2524 9.18868 25.7619 8.66391 25.1672 8.28585ZM38.0979 14.0034H38.5961C39.1192 14.0034 39.6768 14.1076 39.6768 14.8042C39.6768 15.5007 39.0847 15.5439 38.5961 15.5439H38.0979V14.0034ZM38.0979 11.9063H38.5014C38.982 11.9063 39.5139 11.9495 39.5139 12.5679C39.5139 13.1856 38.9732 13.2116 38.5271 13.2116H38.0979V11.9071V11.9063ZM37.0516 16.3796H38.8961C39.5565 16.3796 40.7407 16.1794 40.7407 14.8392C40.7342 14.5189 40.6054 14.2136 40.3813 13.9879C40.1572 13.7621 39.8554 13.6335 39.5396 13.6291C39.8293 13.5988 40.0974 13.4597 40.2912 13.2391C40.4849 13.0185 40.5903 12.7323 40.5866 12.4369C40.5866 11.2797 39.5741 11.0795 38.8705 11.0795H37.0428L37.0516 16.3796ZM47.4085 11.0706H43.8471V13.7861C43.8471 14.6568 43.7268 15.5275 43.1692 15.5275C43.0122 15.5211 42.8566 15.4946 42.7062 15.4486V16.3193C42.9557 16.3826 43.2125 16.4176 43.4693 16.4235C44.6021 16.4235 44.9286 15.1956 44.9286 13.8821V11.9063H46.3872V16.3796H47.4422L47.4085 11.0706ZM53.0286 14.3257H51.501L52.2567 12.1325L53.0117 14.3257H53.0286ZM49.6565 16.3796H50.7461L51.201 15.1614H53.3206L53.7755 16.3796H54.9333L52.8826 11.0706H51.6984L49.6565 16.3796ZM61.8755 17.7459V15.5439H61.3861V11.0713H57.8336V12.8112C57.8941 13.7709 57.6923 14.7289 57.2503 15.5796H56.7271V17.7809H57.7734V16.3796H60.8285V17.7459H61.8755ZM60.3479 15.5439H58.4513C58.7832 14.6979 58.9381 13.7911 58.9062 12.8812V11.9063H60.3479V15.5439ZM64.1925 16.4146H65.3936L67.3408 12.6371V16.4146H68.3709V11.1056H67.1698L65.2219 14.8741V11.0713H64.1749L64.1918 16.4146H64.1925ZM72.2323 14.0384H72.7041C73.236 14.0384 73.7856 14.1426 73.7856 14.8392C73.7856 15.5357 73.1935 15.5789 72.7041 15.5789H72.2147L72.2323 14.0384ZM72.2323 11.9413H72.6183C73.0988 11.9413 73.6308 11.9845 73.6308 12.6029C73.6308 13.2205 73.082 13.2466 72.6351 13.2466H72.2147L72.2323 11.9413ZM71.1765 16.4146H72.9961C73.6476 16.4146 74.8318 16.2144 74.8318 14.8741C74.8273 14.5548 74.7002 14.2498 74.4776 14.0239C74.255 13.7979 73.9544 13.6689 73.6396 13.6641C73.9277 13.6316 74.1935 13.4915 74.3854 13.2712C74.5773 13.0508 74.6815 12.7659 74.6777 12.4719C74.6777 11.3147 73.6652 11.1145 72.9609 11.1145H71.1597L71.1765 16.4146ZM77.0806 13.743C77.0806 14.4354 77.3518 15.0996 77.8346 15.5892C78.3173 16.0789 78.9721 16.3539 79.6548 16.3539C80.3375 16.3539 80.9922 16.0789 81.475 15.5892C81.9577 15.0996 82.2289 14.4354 82.2289 13.743C82.2817 13.2049 82.1599 12.6641 81.8821 12.2026C81.6043 11.7411 81.1856 11.3842 80.6896 11.1859C80.3606 11.0548 80.0074 10.9977 79.6544 11.0185C79.3002 10.993 78.9449 11.047 78.6137 11.1767C78.2824 11.3064 77.9835 11.5085 77.738 11.7686C77.4923 12.0286 77.3061 12.3403 77.1924 12.6815C77.0788 13.0227 77.0406 13.3851 77.0806 13.743ZM78.1789 13.743C78.1789 12.8112 78.6074 11.8542 79.6456 11.8542C80.6838 11.8542 81.113 12.8112 81.113 13.743C81.113 14.6732 80.7014 15.6659 79.6287 15.6659C78.5561 15.6659 78.1613 14.7 78.1613 13.743H78.1789ZM88.4925 15.4137C88.1301 15.5761 87.739 15.6622 87.3428 15.6667C87.0995 15.6763 86.857 15.6332 86.6314 15.5404C86.4058 15.4477 86.2022 15.3073 86.0342 15.1285C85.8662 14.9498 85.7376 14.7369 85.657 14.5039C85.5764 14.2709 85.5455 14.0232 85.5665 13.7772C85.5416 13.5338 85.5674 13.2877 85.6422 13.0551C85.7171 12.8224 85.8392 12.6082 86.0009 12.4265C86.1629 12.2451 86.3608 12.1004 86.5816 12.0016C86.8025 11.9029 87.0413 11.8524 87.2826 11.8535C87.6781 11.8418 88.0694 11.9382 88.4155 12.1325L88.4844 11.2618C88.1061 11.1166 87.7048 11.0429 87.3002 11.0445C86.9196 10.9986 86.5337 11.0395 86.1706 11.1642C85.8076 11.2889 85.4766 11.4944 85.2019 11.7655C84.9271 12.0366 84.7156 12.3665 84.5827 12.7312C84.4498 13.0958 84.3989 13.486 84.4337 13.8732C84.4337 15.6749 85.6098 16.5277 87.3002 16.5277C87.7028 16.5217 88.1031 16.4662 88.4925 16.3625L88.4499 15.4918L88.4925 15.4137ZM91.9849 16.3796H93.0319V11.9063H94.5337V11.0356H90.483V11.9071H91.9849V16.3796ZM96.5243 13.708C96.5184 14.0545 96.5807 14.3987 96.7074 14.7205C96.8341 15.0423 97.0227 15.3354 97.2622 15.5825C97.5017 15.8296 97.7873 16.0259 98.1024 16.1599C98.4174 16.2939 98.7557 16.363 99.0973 16.363C99.439 16.3631 99.7772 16.2941 100.092 16.1602C100.407 16.0263 100.693 15.8301 100.933 15.583C101.172 15.336 101.361 15.043 101.488 14.7212C101.615 14.3994 101.677 14.0552 101.671 13.7087C101.66 13.0241 101.384 12.3713 100.903 11.8911C100.422 11.4109 99.7735 11.1416 99.0984 11.1415C98.4233 11.1413 97.7752 11.4101 97.2937 11.89C96.8122 12.37 96.5359 13.0226 96.5243 13.7072V13.708ZM97.6138 13.708C97.6138 12.7763 98.043 11.8192 99.09 11.8192C100.136 11.8192 100.557 12.7763 100.557 13.7072C100.557 14.639 100.163 15.6659 99.09 15.6659C98.0173 15.6659 97.6138 14.7 97.6138 13.7422V13.7072V13.708ZM104.187 16.3796H105.234V13.9164H105.251L107.13 16.3796H108.503L106.263 13.5778L108.417 11.0706H107.122L105.234 13.3515V11.0713H104.187V16.3796ZM114.407 15.4137C114.037 15.5818 113.636 15.6681 113.231 15.6667C112.987 15.6763 112.745 15.6332 112.519 15.5405C112.294 15.4478 112.09 15.3074 111.922 15.1288C111.754 14.9502 111.626 14.7373 111.545 14.5044C111.464 14.2715 111.433 14.0239 111.454 13.7779C111.429 13.5344 111.455 13.2882 111.53 13.0554C111.605 12.8226 111.727 12.6083 111.889 12.4265C112.051 12.2451 112.248 12.1003 112.469 12.0016C112.69 11.9028 112.929 11.8524 113.17 11.8535C113.567 11.8401 113.958 11.9361 114.303 12.1325L114.38 11.2618C114.002 11.1178 113.601 11.0442 113.197 11.0445C112.816 10.9977 112.429 11.0379 112.065 11.1622C111.701 11.2864 111.369 11.4917 111.094 11.7629C110.818 12.034 110.606 12.3643 110.472 12.7294C110.339 13.0945 110.288 13.4853 110.322 13.8732C110.322 15.6749 111.498 16.5277 113.197 16.5277C113.608 16.5015 114.014 16.4256 114.407 16.3015L114.355 15.4308L114.407 15.4137ZM116.801 16.3796H117.839V13.9253L119.727 16.3885H121.099L118.843 13.5778L120.996 11.0706H119.709L117.839 13.3508V11.0706H116.783L116.801 16.3796ZM123.382 16.3796H124.583L126.496 12.6029V16.3796H127.543V11.0706H126.342L124.394 14.8392V11.0706H123.347L123.382 16.3796ZM130.367 16.3796H131.568L133.481 12.6029V16.3796H134.536V11.0706H133.335L131.387 14.8392V11.0706H130.332L130.367 16.3796ZM133.516 10.3398L133.404 9.57329C133.112 9.75934 132.77 9.84864 132.425 9.82631C132.09 9.84522 131.757 9.75671 131.473 9.57329L131.37 10.3748C131.708 10.5013 132.066 10.5608 132.425 10.5489C132.799 10.551 133.169 10.48 133.516 10.3398ZM36.8976 25.5703H37.9012V21.2191L39.3085 25.5703H40.321L41.7282 21.2191V25.5703H42.7319V20.2613H41.0158L39.7714 24.2911L38.5271 20.2613H36.811L36.8968 25.5703H36.8976ZM43.7613 22.9076C43.7189 23.2676 43.7551 23.6326 43.8674 23.9768C43.9797 24.321 44.1652 24.6359 44.4109 24.8991C44.6566 25.1624 44.9565 25.3676 45.2891 25.5002C45.6218 25.6328 45.9791 25.6895 46.3358 25.6663C46.6913 25.6847 47.0465 25.6247 47.3769 25.4904C47.7073 25.3562 48.0051 25.1509 48.2498 24.8887C48.4945 24.6265 48.6803 24.3136 48.7943 23.9716C48.9083 23.6296 48.9479 23.2666 48.9104 22.9076C48.899 22.2228 48.6227 21.5699 48.1412 21.0897C47.6597 20.6095 47.0115 20.3403 46.3362 20.3403C45.6609 20.3403 45.0126 20.6095 44.5311 21.0897C44.0496 21.5699 43.7734 22.2228 43.762 22.9076H43.7613ZM44.8596 22.9076C44.8596 21.9677 45.28 21.0099 46.327 21.0099C47.374 21.0099 47.7944 21.9677 47.7944 22.9076C47.7944 23.8475 47.3997 24.8306 46.327 24.8306C45.2543 24.8306 44.8596 23.8646 44.8596 22.9076ZM50.8664 21.097H51.2354C51.7674 21.097 52.2311 21.3151 52.2311 21.9677C52.2311 22.6204 51.7586 22.7595 51.2354 22.7595H50.8664V21.097ZM49.8113 25.5703H50.8495V23.561H51.2868C52.4108 23.561 53.303 23.1085 53.303 21.8717C53.303 20.6364 52.2648 20.262 51.1239 20.262H49.7937L49.8113 25.5711V25.5703ZM57.8768 24.6044C57.5129 24.7584 57.1211 24.8351 56.7271 24.8306C56.4832 24.8402 56.24 24.7969 56.0138 24.7036C55.7876 24.6103 55.5837 24.4691 55.4156 24.2895C55.2475 24.1099 55.1191 23.896 55.0389 23.6621C54.9588 23.4281 54.9288 23.1796 54.9509 22.9329C54.9255 22.6895 54.951 22.4433 55.0258 22.2106C55.1006 21.9778 55.223 21.7637 55.385 21.5822C55.5469 21.4007 55.7449 21.2559 55.9658 21.1573C56.1867 21.0587 56.4256 21.0085 56.667 21.0099C57.054 21.0001 57.4365 21.0962 57.7741 21.2883L57.8512 20.4176C57.4715 20.2773 57.071 20.204 56.667 20.201C56.2851 20.1539 55.8976 20.1943 55.5331 20.319C55.1686 20.4438 54.8363 20.6497 54.5605 20.9219C54.2848 21.194 54.0727 21.5253 53.9398 21.8914C53.8068 22.2576 53.7565 22.6493 53.7924 23.0378C53.7924 24.8313 54.9765 25.6492 56.667 25.6492C57.0694 25.638 57.4694 25.5824 57.86 25.4832L57.8167 24.6125L57.8768 24.6051V24.6044ZM58.7177 25.5703H59.7646V23.1071H59.7815L61.6605 25.5703H63.034L60.794 22.7685L62.9393 20.262H61.6524L59.7646 22.5422V20.262H58.7177V25.5711V25.5703ZM63.3509 22.9076C63.3509 23.6001 63.6222 24.2642 64.1049 24.7539C64.5877 25.2435 65.2424 25.5186 65.9251 25.5186C66.6078 25.5186 67.2626 25.2435 67.7453 24.7539C68.2281 24.2642 68.4993 23.6001 68.4993 22.9076C68.4993 22.2151 68.2281 21.551 67.7453 21.0614C67.2626 20.5717 66.6078 20.2966 65.9251 20.2966C65.2424 20.2966 64.5877 20.5717 64.1049 21.0614C63.6222 21.551 63.3509 22.2151 63.3509 22.9076ZM64.4412 22.9076C64.4412 21.9677 64.8697 21.0099 65.9086 21.0099C66.9468 21.0099 67.3841 21.9677 67.3841 22.9076C67.3841 23.8475 66.9805 24.8306 65.9079 24.8306C64.8352 24.8306 64.4405 23.8646 64.4405 22.9076H64.4412ZM69.478 25.5703H70.6446L72.5926 21.8018V25.5703H73.674V20.2613H72.4723L70.5243 24.0388V20.2613H69.478V25.5703ZM72.6527 19.5305L72.5412 18.7387C72.2529 18.9344 71.9102 19.0319 71.5625 19.017C71.236 19.0211 70.916 18.924 70.6454 18.7387L70.5419 19.5305C70.8765 19.6697 71.2352 19.7404 71.597 19.7389C71.9703 19.7421 72.3407 19.6714 72.6872 19.5305H72.6527ZM80.2641 21.0978H80.6331C81.1731 21.0978 81.628 21.3143 81.628 21.9677C81.628 22.6204 81.1563 22.7595 80.6331 22.7595H80.2641V21.097V21.0978ZM79.2259 25.5703H80.2641V23.561H80.7102C81.8342 23.561 82.7264 23.1085 82.7264 21.8717C82.7264 20.6364 81.6794 20.262 80.5473 20.262H79.2259V25.5711V25.5703ZM87.0339 23.9696C87.0339 22.7335 86.1762 22.2803 85.0089 22.2803H84.5716V20.2613H83.5158V25.5703H84.8372C85.9789 25.5703 87.0251 25.2399 87.0251 23.9696H87.0339ZM85.9356 23.9085C85.9356 24.5262 85.4807 24.7792 84.9399 24.7792H84.5716V23.116H84.9399C85.4638 23.116 85.9356 23.2901 85.9356 23.9085ZM87.4976 20.262V25.5703H88.5358V20.2613H87.4888H87.4976V20.262ZM90.8521 23.2031H91.3414C91.8646 23.2031 92.4229 23.3072 92.4229 23.9956C92.4229 24.6825 91.8308 24.7353 91.3414 24.7353H90.8521V23.2031ZM93.4692 23.9606C93.4692 22.8898 92.7655 22.4112 91.6334 22.4112H90.8521V21.097H92.8778V20.2263H89.7882V25.5361H91.6158C92.2769 25.5361 93.4611 25.3872 93.4611 23.9257L93.4692 23.9606ZM94.4134 25.5703H95.4604V23.247H97.5624V25.5703H98.6094V20.2613H97.5624V22.4112H95.4604V20.2613H94.4046L94.4134 25.5703ZM103.372 23.9696C103.372 22.7335 102.513 22.2803 101.355 22.2803H100.909V20.2613H99.8193V25.5703H101.183C102.325 25.5703 103.372 25.2399 103.372 23.9696ZM102.274 23.9085C102.274 24.5262 101.819 24.7792 101.278 24.7792H100.909V23.116H101.278C101.801 23.116 102.274 23.2901 102.274 23.9085ZM103.835 20.262V25.5703H104.882V20.2613H103.835V20.262ZM106.135 25.5703H107.336L109.258 21.8018V25.5703H110.339V20.2613H109.138L107.19 24.0388V20.2613H106.135V25.5703ZM109.318 19.5305L109.206 18.7387C108.918 18.9337 108.575 19.0312 108.228 19.017C107.89 19.0285 107.556 18.9311 107.276 18.7387L107.173 19.5305C107.508 19.6696 107.866 19.7404 108.228 19.7389C108.601 19.7413 108.971 19.6705 109.318 19.5305ZM116.98 25.5703V21.0978H119.117V25.5711H120.164V20.262H115.968V25.5711H116.98V25.5703ZM121.125 22.9076C121.084 23.2671 121.121 23.6314 121.234 23.9747C121.347 24.318 121.532 24.6321 121.778 24.8946C122.023 25.1575 122.322 25.3629 122.654 25.4962C122.986 25.6295 123.343 25.6875 123.699 25.6663C124.054 25.6851 124.41 25.6253 124.74 25.4912C125.071 25.3571 125.369 25.1518 125.614 24.8895C125.859 24.6273 126.044 24.3142 126.158 23.9721C126.272 23.6299 126.311 23.2667 126.273 22.9076C126.31 22.55 126.27 22.1885 126.155 21.8483C126.04 21.5081 125.854 21.1971 125.609 20.937C125.364 20.6773 125.067 20.4746 124.737 20.3429C124.407 20.2112 124.053 20.1536 123.699 20.1742C123.164 20.1386 122.633 20.2831 122.188 20.5852C121.743 20.8874 121.409 21.3302 121.237 21.8449C121.124 22.1865 121.085 22.5493 121.125 22.9076ZM122.223 22.9076C122.223 21.967 122.653 21.0099 123.699 21.0099C124.746 21.0099 125.166 21.9677 125.166 22.9076C125.166 23.8475 124.772 24.8306 123.699 24.8306C122.627 24.8306 122.223 23.8646 122.223 22.9076ZM128.23 21.097H128.616C129.157 21.097 129.611 21.3143 129.611 21.9677C129.611 22.6204 129.139 22.7595 128.616 22.7595H128.247L128.23 21.097ZM127.183 25.5703H128.247V23.561H128.693C129.852 23.561 130.709 23.1085 130.709 21.8717C130.709 20.6364 129.671 20.262 128.53 20.262H127.2L127.183 25.5711V25.5703ZM132.434 25.5703H133.498V21.0978H135V20.2271H130.95V21.0978H132.425L132.434 25.5711V25.5703Z" fill="white"/>
</svg>
