<svg width="17" height="26" viewBox="0 0 17 26" fill="none" xmlns="http://www.w3.org/2000/svg">
<path d="M15.5339 20.2847C14.8033 19.843 13.8251 19.4787 12.6807 19.2186C15.0101 16.1452 16.8722 12.5735 16.8722 8.39205C16.8723 3.75521 13.1339 0 8.51085 0H8.50723C6.84924 0.000706673 5.24838 0.495429 3.87755 1.43086C3.70525 1.54842 3.66059 1.78385 3.77772 1.95678C3.8948 2.12971 4.12942 2.17464 4.30172 2.05697C5.54696 1.20725 7.00132 0.757806 8.50748 0.75715H8.5108C12.7139 0.75715 16.1178 4.17084 16.1178 8.39205C16.1178 10.5319 15.7295 13.1309 13.4819 16.7064C11.843 16.3832 10.3868 15.5959 8.52212 15.5959C6.64279 15.5959 5.18264 16.394 3.5252 16.7133C2.04278 14.3342 0.981207 11.6826 0.907881 8.726C0.857085 6.67837 1.58638 4.72295 2.96142 3.22006C3.10234 3.06605 3.09219 2.82659 2.93869 2.68516C2.78535 2.54382 2.54671 2.55387 2.40574 2.70797C0.897923 4.35614 0.0980704 6.50003 0.153744 8.74483C0.253726 12.777 2.07794 16.2334 4.33743 19.2146C3.1885 19.4743 2.20608 19.8387 1.47216 20.2811C0.255386 21.0145 0 21.79 0 22.3113C0 23.3212 0.930563 24.2386 2.62024 24.8947C4.19676 25.5069 6.28485 25.8441 8.49999 25.8441C10.3269 25.8441 12.0624 25.6168 13.5187 25.1867C13.7186 25.1277 13.8329 24.9173 13.7741 24.7168C13.7153 24.5162 13.5057 24.4012 13.3058 24.4604C11.9177 24.8703 10.2559 25.0869 8.49999 25.0869C6.37573 25.0869 4.3842 24.7679 2.89237 24.1886C1.53362 23.661 0.754337 22.9767 0.754337 22.3113C0.754337 21.338 2.39171 20.3719 4.85308 19.8784C5.54973 20.7532 6.27701 21.5857 6.99986 22.3787C7.65362 23.096 8.51779 23.0492 8.51276 23.0482C9.08378 23.0482 9.63248 22.8057 10.0178 22.3831C10.7416 21.5892 11.4688 20.7563 12.1651 19.8819C14.6156 20.3765 16.2456 21.3412 16.2456 22.3113C16.2456 22.8238 15.7706 23.361 14.9082 23.824C14.7245 23.9227 14.6552 24.152 14.7535 24.3364C14.8516 24.5205 15.0799 24.5905 15.264 24.4916C16.6988 23.7213 17 22.8808 17 22.3113C17 21.7911 16.7456 21.0172 15.5339 20.2847ZM9.46128 21.8719C8.94282 22.4406 8.06249 22.4228 7.55645 21.8677C6.28008 20.4674 5.03468 18.9907 3.96572 17.3947C5.55486 17.0369 6.88394 16.353 8.52212 16.353C10.1461 16.353 11.4639 17.0246 13.0399 17.3857C12.1316 18.738 10.9631 20.2247 9.46128 21.8719Z" fill="white"/>
</svg>
