<svg width="35" height="35" viewBox="0 0 35 35" fill="none" xmlns="http://www.w3.org/2000/svg">
<path d="M35 17.5C35 7.84991 27.1501 -3.43131e-07 17.5 -7.64949e-07C7.84991 -1.18677e-06 -3.43131e-07 7.84991 -7.64949e-07 17.5C-1.18677e-06 27.1501 7.85128 35 17.5 35C27.1487 35 35 27.1501 35 17.5ZM2.71106 17.5C2.71106 9.34643 9.34507 2.71106 17.5 2.71106C25.6549 2.71106 32.2889 9.34644 32.2889 17.5C32.2889 25.6549 25.6549 32.2889 17.5 32.2889C9.34507 32.2889 2.71106 25.6536 2.71106 17.5Z" fill="#2BF2E0"/>
<path d="M15.6291 25.2401L22.4068 18.4624C22.9328 17.9337 22.9328 17.0797 22.4068 16.551L15.6291 9.77335C15.1222 9.33824 14.3725 9.33824 13.8656 9.77335C13.2976 10.26 13.2312 11.1167 13.7178 11.6847L19.533 17.4999L13.7178 23.3287C13.1918 23.8574 13.1918 24.7114 13.7178 25.2401C14.2465 25.766 15.1005 25.766 15.6291 25.2401Z" fill="#2BF2E0"/>
</svg>
