<svg width="35" height="35" viewBox="0 0 35 35" fill="none" xmlns="http://www.w3.org/2000/svg">
<path d="M19.5621 17.5L34.5724 2.48968C35.1426 1.91949 35.1426 0.997846 34.5724 0.427648C34.0022 -0.142549 33.0806 -0.142549 32.5104 0.427648L17.5 15.438L2.48968 0.427648C1.91949 -0.142549 0.997846 -0.142549 0.427648 0.427648C-0.142549 0.997846 -0.142549 1.91949 0.427648 2.48968L15.438 17.5L0.427648 32.5103C-0.142549 33.0805 -0.142549 34.0022 0.427648 34.5724C0.71203 34.8568 1.08535 34.9996 1.45867 34.9996C1.83199 34.9996 2.2053 34.8567 2.48968 34.5724L17.5 19.5621L32.5104 34.5724C32.7947 34.8568 33.1681 34.9996 33.5414 34.9996C33.9147 34.9996 34.288 34.8567 34.5724 34.5724C35.1426 34.0022 35.1426 33.0805 34.5724 32.5103L19.5621 17.5Z" fill="#131C44"/>
</svg>
