<svg width="35" height="35" viewBox="0 0 35 35" fill="none" xmlns="http://www.w3.org/2000/svg">
<path d="M19.5621 17.5003L34.5724 2.48993C35.1426 1.91973 35.1426 0.99809 34.5724 0.427892C34.0022 -0.142305 33.0806 -0.142305 32.5104 0.427892L17.5 15.4382L2.48968 0.427892C1.91949 -0.142305 0.997846 -0.142305 0.427648 0.427892C-0.142549 0.99809 -0.142549 1.91973 0.427648 2.48993L15.438 17.5003L0.427648 32.5106C-0.142549 33.0808 -0.142549 34.0024 0.427648 34.5726C0.71203 34.857 1.08535 34.9999 1.45867 34.9999C1.83199 34.9999 2.2053 34.8569 2.48968 34.5726L17.5 19.5623L32.5104 34.5726C32.7947 34.857 33.1681 34.9999 33.5414 34.9999C33.9147 34.9999 34.288 34.8569 34.5724 34.5726C35.1426 34.0024 35.1426 33.0808 34.5724 32.5106L19.5621 17.5003Z" fill="#131C44"/>
</svg>
