<svg width="35" height="35" viewBox="0 0 35 35" fill="none" xmlns="http://www.w3.org/2000/svg">
<path d="M23.1803 16.8481C22.9323 16.3538 22.4278 16.0417 21.8751 16.0417H18.9584V1.45831C18.9584 0.653311 18.3065 0 17.5001 0C16.6937 0 16.0418 0.653311 16.0418 1.45831V16.0416H13.1251C12.5724 16.0416 12.0678 16.3537 11.8199 16.8481C11.5749 17.3424 11.6274 17.9331 11.9585 18.3749L16.3335 24.2082C16.3524 24.2331 16.3816 24.2418 16.402 24.2651C16.4983 24.3789 16.612 24.4664 16.7389 24.5466C16.7914 24.5786 16.8322 24.6209 16.8891 24.6472C17.0758 24.7347 17.2799 24.7916 17.5002 24.7916C17.7204 24.7916 17.9245 24.7347 18.1127 24.6472C18.1681 24.6209 18.2103 24.5786 18.2614 24.5466C18.3883 24.4664 18.502 24.3789 18.5983 24.2651C18.6172 24.2418 18.6478 24.2331 18.6669 24.2082L23.0419 18.3749C23.3743 17.9331 23.4268 17.3425 23.1803 16.8481Z" fill="#2BF2E0"/>
<path d="M33.5417 21.875C32.7353 21.875 32.0834 22.5283 32.0834 23.3333V27.7083C32.0834 30.1204 30.1204 32.0833 27.7084 32.0833H7.29169C4.87963 32.0833 2.91669 30.1204 2.91669 27.7083V23.3333C2.91669 22.5283 2.26481 21.875 1.45838 21.875C0.651875 21.875 0 22.5283 0 23.3333V27.7083C0 31.7289 3.27106 35 7.29169 35H27.7084C31.7289 35 35 31.7289 35 27.7083V23.3333C35 22.5283 34.3481 21.875 33.5417 21.875Z" fill="#2BF2E0"/>
</svg>
