<svg width="19" height="18" viewBox="0 0 19 18" fill="none" xmlns="http://www.w3.org/2000/svg">
<path d="M18.996 6.27204C18.9954 6.2585 18.9939 6.245 18.9917 6.23162C18.989 6.21737 18.9852 6.20341 18.9804 6.18986C18.9757 6.17441 18.97 6.15934 18.9632 6.1448C18.9612 6.13759 18.9589 6.13051 18.9562 6.12359C18.954 6.11928 18.9497 6.11729 18.9473 6.11299C18.9304 6.0888 18.9112 6.0666 18.89 6.04671C18.881 6.0376 18.8713 6.02915 18.8612 6.02153C18.8572 6.01888 18.8554 6.01424 18.8514 6.01192L9.65828 0.047313C9.56117 -0.015771 9.43975 -0.015771 9.34265 0.047313L0.149541 6.01192C0.145864 6.01424 0.144025 6.01855 0.140348 6.0212C0.129508 6.02894 0.119281 6.03756 0.109704 6.04704C0.0976384 6.05827 0.0863769 6.07045 0.0759963 6.08349C0.0676459 6.09335 0.0598701 6.10375 0.0527071 6.11464C0.0502556 6.11895 0.0459655 6.12094 0.0438205 6.12525C0.0411008 6.13216 0.0387643 6.13925 0.0367724 6.14645C0.0300308 6.16099 0.0242851 6.17607 0.019612 6.19152C0.0147856 6.20507 0.0109934 6.21902 0.00827379 6.23327C0.00609043 6.24665 0.00463486 6.26015 0.00398368 6.2737C0.00398368 6.28132 0 6.28795 0 6.2959V16.898C0 17.447 0.411583 17.8921 0.91931 17.8921H18.0807C18.5884 17.8921 19 17.447 19 16.898V6.29424C19 6.28629 18.9963 6.27966 18.996 6.27204ZM9.50046 0.716012L18.0979 6.29424L13.3309 9.38722L9.65828 7.00436C9.56117 6.94128 9.43975 6.94128 9.34265 7.00436L5.67 9.38722L0.903069 6.29424L9.50046 0.716012ZM0.613793 6.87944L5.07429 9.7736L0.613793 12.6678V6.87944ZM18.3871 16.898C18.3871 17.081 18.2499 17.2294 18.0807 17.2294H0.92023C0.751 17.2294 0.613793 17.081 0.613793 16.898V13.4405L9.50046 7.67472L18.3871 13.4405V16.898ZM18.3871 12.6678L13.9266 9.7736L18.3871 6.87944V12.6678Z" fill="white"/>
</svg>
