<svg width="155" height="64" viewBox="0 0 155 64" fill="none" xmlns="http://www.w3.org/2000/svg">
<path d="M70.1182 32.0312L67.847 31.7734L67.6207 33.7672L69.5683 34.2498L70.1182 32.0312ZM73.3994 3.12499V0.839279H71.3585L71.1283 2.86719L73.3994 3.12499ZM105.274 3.12499H107.56V0.839279H105.274V3.12499ZM105.274 12.5391V14.8248H107.56V12.5391H105.274ZM82.6572 12.5391V10.2533H80.6193L80.3865 12.2779L82.6572 12.5391ZM81.251 24.7656L78.9802 24.5045L78.4821 28.8353L82.3276 26.7819L81.251 24.7656ZM102.54 27.6562L100.853 29.199L102.54 27.6562ZM104.806 51.6406L102.791 50.5613L102.787 50.5678L104.806 51.6406ZM98.165 58.3984L99.2659 60.4016L99.2728 60.3978L99.2797 60.394L98.165 58.3984ZM78.3604 58.7109L77.3748 60.7733L77.3823 60.7768L77.3897 60.7803L78.3604 58.7109ZM71.3682 52.8125L69.4694 54.0849L69.4739 54.0916L69.4784 54.0983L71.3682 52.8125ZM68.6729 44.1797V41.894H66.3122L66.3883 44.2534L68.6729 44.1797ZM79.8447 44.1797L82.1193 43.9547L81.9155 41.894H79.8447V44.1797ZM82.3057 49.7266L80.7362 51.3883L80.752 51.4032L80.7681 51.4179L82.3057 49.7266ZM93.79 48.9453L95.6123 50.3251L95.617 50.3188L95.6217 50.3126L93.79 48.9453ZM80.1963 33.2422L78.7223 31.4952L78.6808 31.5303L78.641 31.5672L80.1963 33.2422ZM79.1025 34.2578L78.5527 36.4764L79.7523 36.7737L80.6579 35.9328L79.1025 34.2578ZM72.3893 32.2891L75.6705 3.38279L71.1283 2.86719L67.847 31.7734L72.3893 32.2891ZM73.3994 5.4107H105.274V0.839279H73.3994V5.4107ZM102.989 3.12499V12.5391H107.56V3.12499H102.989ZM105.274 10.2533H82.6572V14.8248H105.274V10.2533ZM80.3865 12.2779L78.9802 24.5045L83.5217 25.0268L84.928 12.8002L80.3865 12.2779ZM82.3276 26.7819C84.6809 25.5253 87.163 24.9029 89.8057 24.9029V20.3315C86.4067 20.3315 83.1856 21.1414 80.1743 22.7494L82.3276 26.7819ZM89.8057 24.9029C94.7133 24.9029 98.2956 26.4027 100.853 29.199L104.227 26.1135C100.639 22.1911 95.7313 20.3315 89.8057 20.3315V24.9029ZM100.853 29.199C103.429 32.0148 104.864 36.0965 104.864 41.7578H109.435C109.435 35.3358 107.797 30.0165 104.227 26.1135L100.853 29.199ZM104.864 41.7578C104.864 45.0952 104.157 48.0118 102.791 50.5613L106.82 52.72C108.58 49.4361 109.435 45.7642 109.435 41.7578H104.864ZM102.787 50.5678C101.46 53.0657 99.562 55 97.0504 56.4029L99.2797 60.394C102.549 58.5677 105.079 55.9968 106.824 52.7134L102.787 50.5678ZM97.0642 56.3953C94.5702 57.7659 91.552 58.4955 87.9307 58.4955V63.067C92.1739 63.067 95.9786 62.2081 99.2659 60.4016L97.0642 56.3953ZM87.9307 58.4955C84.8089 58.4955 81.9525 57.8711 79.331 56.6415L77.3897 60.7803C80.6536 62.3112 84.1774 63.067 87.9307 63.067V58.4955ZM79.3459 56.6486C76.7424 55.4045 74.7338 53.6959 73.2579 51.5267L69.4784 54.0983C71.44 56.9812 74.0928 59.2049 77.3748 60.7733L79.3459 56.6486ZM73.267 51.5401C71.8276 49.3922 71.0486 46.9353 70.9574 44.106L66.3883 44.2534C66.5054 47.8824 67.5233 51.1808 69.4694 54.0849L73.267 51.5401ZM68.6729 46.4654H79.8447V41.894H68.6729V46.4654ZM77.5701 44.4046C77.8457 47.1909 78.8427 49.5999 80.7362 51.3883L83.8751 48.0648C82.9562 47.1969 82.3125 45.908 82.1193 43.9547L77.5701 44.4046ZM80.7681 51.4179C82.6965 53.1709 85.1421 53.9654 87.8916 53.9654V49.394C86.0578 49.394 84.7794 48.8864 83.8432 48.0353L80.7681 51.4179ZM87.8916 53.9654C91.0641 53.9654 93.7456 52.7906 95.6123 50.3251L91.9677 47.5656C91.0741 48.7458 89.8233 49.394 87.8916 49.394V53.9654ZM95.6217 50.3126C97.4039 47.9251 98.1461 44.769 98.1461 41.1328H93.5746C93.5746 44.2153 92.9366 46.2676 91.9584 47.578L95.6217 50.3126ZM98.1461 41.1328C98.1461 37.5488 97.2624 34.4385 95.1561 32.1595L91.799 35.2623C92.8697 36.4209 93.5746 38.2585 93.5746 41.1328H98.1461ZM95.1561 32.1595C93.0327 29.8621 90.1058 28.8471 86.7197 28.8471V33.4185C89.167 33.4185 90.7453 34.1223 91.799 35.2623L95.1561 32.1595ZM86.7197 28.8471C83.6265 28.8471 80.8899 29.6663 78.7223 31.4952L81.6703 34.9891C82.836 34.0056 84.4484 33.4185 86.7197 33.4185V28.8471ZM78.641 31.5672L77.5472 32.5829L80.6579 35.9328L81.7516 34.9171L78.641 31.5672ZM79.6524 32.0392L70.668 29.8127L69.5683 34.2498L78.5527 36.4764L79.6524 32.0392ZM147.774 54.5312L149.576 55.9384L147.774 54.5312ZM114.22 37.0703H111.934V37.082V37.0937L114.22 37.0703ZM119.142 8.51561L117.36 7.08361L117.355 7.0905L119.142 8.51561ZM147.618 8.47655L145.836 9.9072L145.84 9.91275L147.618 8.47655ZM152.657 26.0156H154.943V26.0039V25.9922L152.657 26.0156ZM139.415 14.7266L137.447 15.8886L137.455 15.9026L137.464 15.9165L139.415 14.7266ZM127.501 14.5703L125.559 13.3655L125.554 13.3724L127.501 14.5703ZM125.509 24.1406L123.223 24.0996V24.1201V24.1406H125.509ZM127.384 48.3203L125.382 49.4245L125.39 49.4382L125.398 49.4519L127.384 48.3203ZM139.454 48.4375L137.465 47.3112L139.454 48.4375ZM141.368 38.5156L143.654 38.5424V38.529V38.5156H141.368ZM150.372 36.4844C150.372 44.0772 148.794 49.5135 145.973 53.1241L149.576 55.9384C153.265 51.2157 154.943 44.6207 154.943 36.4844H150.372ZM145.973 53.1241C143.234 56.6297 139.197 58.4955 133.478 58.4955V63.067C140.31 63.067 145.804 60.7661 149.576 55.9384L145.973 53.1241ZM133.478 58.4955C127.832 58.4955 123.808 56.6646 121.041 53.2178L117.476 56.0791C121.272 60.8093 126.727 63.067 133.478 63.067V58.4955ZM121.041 53.2178C118.198 49.6749 116.581 44.3906 116.505 37.0469L111.934 37.0937C112.015 45.0105 113.757 51.4449 117.476 56.0791L121.041 53.2178ZM116.505 37.0703V26.6016H111.934V37.0703H116.505ZM116.505 26.6016C116.505 18.9248 118.098 13.4898 120.929 9.94073L117.355 7.0905C113.622 11.7706 111.934 18.3929 111.934 26.6016H116.505ZM120.923 9.94761C123.719 6.46973 127.759 4.62945 133.399 4.62945V0.0580292C126.644 0.0580292 121.179 2.33233 117.36 7.08362L120.923 9.94761ZM133.399 4.62945C139.045 4.62945 143.069 6.46034 145.836 9.90719L149.401 7.04591C145.605 2.31568 140.149 0.0580292 133.399 0.0580292V4.62945ZM145.84 9.91275C148.678 13.427 150.296 18.6941 150.372 26.039L154.943 25.9922C154.862 18.0768 153.12 11.6511 149.396 7.04035L145.84 9.91275ZM150.372 26.0156V36.4844H154.943V26.0156H150.372ZM143.654 25C143.654 20.1798 143.007 16.2269 141.367 13.5366L137.464 15.9165C138.427 17.4971 139.082 20.3931 139.082 25H143.654ZM141.383 13.5646C139.654 10.6345 136.855 9.19865 133.399 9.19865V13.7701C135.413 13.7701 136.624 14.4957 137.447 15.8886L141.383 13.5646ZM133.399 9.19865C130.044 9.19865 127.298 10.5615 125.559 13.3655L129.443 15.7751C130.256 14.4646 131.442 13.7701 133.399 13.7701V9.19865ZM125.554 13.3724C123.977 15.9347 123.304 19.6293 123.223 24.0996L127.794 24.1817C127.87 19.954 128.524 17.2684 129.448 15.7682L125.554 13.3724ZM123.223 24.1406V37.9688H127.795V24.1406H123.223ZM123.223 37.9688C123.223 42.7287 123.851 46.6485 125.382 49.4245L129.385 47.2161C128.417 45.4609 127.795 42.4796 127.795 37.9688H123.223ZM125.398 49.4519C127.119 52.4729 129.951 53.9654 133.478 53.9654V49.394C131.431 49.394 130.201 48.6468 129.37 47.1888L125.398 49.4519ZM133.478 53.9654C136.95 53.9654 139.761 52.5336 141.443 49.5638L137.465 47.3112C136.699 48.6643 135.526 49.394 133.478 49.394V53.9654ZM141.443 49.5638C142.954 46.8955 143.6 43.1195 143.654 38.5424L139.083 38.4889C139.032 42.818 138.402 45.6565 137.465 47.3112L141.443 49.5638ZM143.654 38.5156V25H139.082V38.5156H143.654Z" fill="white"/>
<path d="M34.8184 31.2617L35.6606 33.3866L41.0524 31.2495L35.6522 29.1335L34.8184 31.2617ZM2.54296 18.6152H0.257248V20.1745L1.70907 20.7434L2.54296 18.6152ZM2.54296 9.33789L3.46809 7.24777L0.257248 5.82657V9.33789H2.54296ZM44.2422 27.7949H46.5279V26.307L45.1673 25.7048L44.2422 27.7949ZM44.2422 34.9238L45.1694 37.013L46.5279 36.4101V34.9238H44.2422ZM2.54296 53.4297H0.257248V56.9448L3.47014 55.5189L2.54296 53.4297ZM2.54296 44.0547L1.70072 41.9298L0.257248 42.502V44.0547H2.54296ZM35.6522 29.1335L3.37684 16.4871L1.70907 20.7434L33.9845 33.3899L35.6522 29.1335ZM4.82867 18.6152V9.33789H0.257248V18.6152H4.82867ZM1.61782 11.428L43.3171 29.885L45.1673 25.7048L3.46809 7.24777L1.61782 11.428ZM41.9565 27.7949V34.9238H46.5279V27.7949H41.9565ZM43.315 32.8346L1.61578 51.3405L3.47014 55.5189L45.1694 37.013L43.315 32.8346ZM4.82867 53.4297V44.0547H0.257248V53.4297H4.82867ZM3.3852 46.1796L35.6606 33.3866L33.9761 29.1368L1.70072 41.9298L3.3852 46.1796Z" fill="white"/>
</svg>
