<svg width="15" height="20" viewBox="0 0 15 20" fill="none" xmlns="http://www.w3.org/2000/svg">
<path d="M0.846607 0.456055H5.40822C5.50623 0.456055 5.6002 0.494397 5.66958 0.562686L6.71421 1.59168C6.92496 1.79829 7.20362 1.91211 7.49878 1.91211C7.79408 1.91211 8.07219 1.79849 8.28191 1.59212C8.28363 1.59037 8.93027 0.954413 9.32797 0.562686C9.3973 0.494397 9.49132 0.456055 9.58933 0.456055H14.1509C14.3551 0.456055 14.5205 0.619036 14.5205 0.820068V9.24091C14.5205 9.44194 14.3551 9.60492 14.1509 9.60492C13.9468 9.60492 13.7814 9.44194 13.7814 9.24091V1.18408H9.74238C9.74238 1.18408 8.84557 2.06689 8.8024 2.10533L8.80428 2.10717C8.45496 2.45085 7.99138 2.64013 7.49878 2.64013C7.00686 2.64013 6.54303 2.45104 6.19214 2.10702L5.25517 1.18408H1.21617V18.7538H13.7814V10.697C13.7814 10.4959 13.9468 10.3329 14.1509 10.3329C14.3551 10.3329 14.5205 10.4959 14.5205 10.697V19.1178C14.5205 19.3188 14.3551 19.4818 14.1509 19.4818H0.846607C0.64246 19.4818 0.477042 19.3188 0.477042 19.1178V0.820068C0.477042 0.619036 0.64246 0.456055 0.846607 0.456055Z" fill="white"/>
</svg>
