<svg width="200" height="200" viewBox="0 0 200 200" fill="none" xmlns="http://www.w3.org/2000/svg">
<path d="M53.7217 106.839H62.6426V110.685H53.7217V120.792H49.6348V110.685H40.7139V106.839H49.6348V97.501H53.7217V106.839ZM84.2637 106.026H87.3179C89.2368 105.997 90.7456 105.492 91.8442 104.51C92.9429 103.529 93.4922 102.203 93.4922 100.533C93.4922 96.7832 91.6245 94.9082 87.8892 94.9082C86.1313 94.9082 84.7251 95.4136 83.6704 96.4243C82.6304 97.4204 82.1104 98.7461 82.1104 100.401H78.0454C78.0454 97.8672 78.9683 95.7651 80.814 94.0952C82.6743 92.4106 85.0327 91.5684 87.8892 91.5684C90.9067 91.5684 93.2725 92.3667 94.9863 93.9634C96.7002 95.5601 97.5571 97.7793 97.5571 100.621C97.5571 102.013 97.103 103.36 96.1948 104.664C95.3013 105.968 94.0781 106.942 92.5254 107.586C94.2832 108.143 95.6382 109.066 96.5903 110.355C97.5571 111.644 98.0405 113.219 98.0405 115.079C98.0405 117.95 97.103 120.228 95.228 121.913C93.353 123.597 90.9141 124.439 87.9111 124.439C84.9082 124.439 82.4619 123.626 80.5723 122C78.6973 120.375 77.7598 118.229 77.7598 115.562H81.8467C81.8467 117.247 82.396 118.595 83.4946 119.605C84.5933 120.616 86.0654 121.122 87.9111 121.122C89.874 121.122 91.3755 120.609 92.4155 119.583C93.4556 118.558 93.9756 117.086 93.9756 115.167C93.9756 113.307 93.4043 111.878 92.2617 110.882C91.1191 109.886 89.4712 109.374 87.3179 109.344H84.2637V106.026ZM123.683 110.355C123.683 115.116 122.87 118.653 121.244 120.968C119.618 123.282 117.076 124.439 113.619 124.439C110.206 124.439 107.679 123.312 106.039 121.056C104.398 118.785 103.548 115.401 103.49 110.904V105.477C103.49 100.775 104.303 97.2812 105.929 94.9961C107.555 92.7109 110.104 91.5684 113.575 91.5684C117.018 91.5684 119.552 92.6743 121.178 94.8862C122.804 97.0835 123.639 100.482 123.683 105.082V110.355ZM119.618 104.796C119.618 101.354 119.134 98.8486 118.167 97.2812C117.201 95.6992 115.67 94.9082 113.575 94.9082C111.495 94.9082 109.979 95.6919 109.027 97.2593C108.075 98.8267 107.584 101.236 107.555 104.488V110.992C107.555 114.449 108.053 117.005 109.049 118.661C110.06 120.301 111.583 121.122 113.619 121.122C115.626 121.122 117.113 120.345 118.08 118.792C119.061 117.24 119.574 114.793 119.618 111.454V104.796ZM148.951 110.355C148.951 115.116 148.138 118.653 146.512 120.968C144.886 123.282 142.345 124.439 138.888 124.439C135.475 124.439 132.948 123.312 131.307 121.056C129.667 118.785 128.817 115.401 128.758 110.904V105.477C128.758 100.775 129.571 97.2812 131.197 94.9961C132.823 92.7109 135.372 91.5684 138.844 91.5684C142.286 91.5684 144.82 92.6743 146.446 94.8862C148.072 97.0835 148.907 100.482 148.951 105.082V110.355ZM144.886 104.796C144.886 101.354 144.403 98.8486 143.436 97.2812C142.469 95.6992 140.938 94.9082 138.844 94.9082C136.764 94.9082 135.248 95.6919 134.295 97.2593C133.343 98.8267 132.853 101.236 132.823 104.488V110.992C132.823 114.449 133.321 117.005 134.317 118.661C135.328 120.301 136.852 121.122 138.888 121.122C140.895 121.122 142.381 120.345 143.348 118.792C144.33 117.24 144.842 114.793 144.886 111.454V104.796Z" fill="white"/>
<circle cx="100" cy="100" r="99.1379" stroke="white" stroke-width="1.72414"/>
<circle cx="99.569" cy="100.431" r="77.1552" stroke="white" stroke-width="1.72414"/>
</svg>
